<?xml version="1.0" standalone="no"?>
<!DOCTYPE svg PUBLIC "-//W3C//DTD SVG 20010904//EN"
 "http://www.w3.org/TR/2001/REC-SVG-20010904/DTD/svg10.dtd">
<svg version="1.0" xmlns="http://www.w3.org/2000/svg"
 width="256.000000pt" height="241.000000pt" viewBox="0 0 256.000000 241.000000"
 preserveAspectRatio="xMidYMid meet">

<g transform="translate(0.000000,241.000000) scale(0.100000,-0.100000)"
fill="#000000" stroke="none">
<path d="M975 2383 c-324 -69 -577 -332 -635 -660 -8 -44 -11 -113 -8 -180 17
-351 268 -656 613 -744 168 -43 374 -22 537 53 38 17 70 29 72 27 1 -2 92
-152 201 -334 213 -355 263 -419 341 -443 126 -37 256 17 317 133 30 58 29
162 -2 232 -20 46 -57 81 -336 324 l-314 272 35 46 c47 61 110 191 131 271 14
49 18 103 18 215 0 143 -2 154 -33 245 -18 52 -51 126 -73 163 -83 140 -249
281 -399 340 -142 56 -321 71 -465 40z m329 -153 c181 -46 344 -177 424 -340
23 -47 49 -112 57 -145 16 -63 21 -245 7 -245 -18 0 -52 -38 -52 -59 0 -11 -4
-21 -10 -21 -5 0 -10 -11 -10 -25 0 -22 -4 -25 -35 -25 l-35 0 0 70 c0 39 -3
70 -8 70 -8 0 -42 73 -42 90 0 6 -4 10 -10 10 -5 0 -10 7 -10 15 0 8 -4 15
-10 15 -5 0 -10 8 -10 19 0 20 -29 32 -58 24 -11 -2 -25 -20 -32 -39 -8 -19
-17 -34 -22 -34 -4 0 -8 -4 -8 -10 0 -17 -34 -90 -42 -90 -5 0 -8 -12 -8 -26
0 -21 -2 -23 -13 -12 -8 8 -16 49 -20 101 -4 65 -11 95 -27 116 -11 16 -20 34
-20 40 0 6 -4 11 -10 11 -5 0 -10 -6 -10 -12 0 -10 -2 -10 -9 0 -6 10 -14 4
-30 -23 -15 -25 -23 -61 -27 -121 -4 -46 -11 -84 -15 -84 -5 0 -9 -20 -9 -44
0 -54 -17 -71 -46 -47 -14 11 -23 33 -26 63 -3 25 -15 66 -27 90 -11 24 -21
50 -21 56 0 7 -4 12 -10 12 -5 0 -10 -11 -10 -24 0 -13 -7 -29 -15 -36 -8 -7
-15 -25 -15 -41 0 -16 -4 -29 -10 -29 -5 0 -10 -17 -10 -39 0 -30 -5 -42 -25
-55 -13 -9 -27 -16 -30 -16 -3 0 -5 27 -5 60 0 33 -4 60 -9 60 -5 0 -14 20
-20 45 -6 25 -16 45 -21 45 -6 0 -15 -20 -22 -45 -7 -25 -16 -45 -20 -45 -4 0
-8 -34 -8 -75 0 -41 -4 -75 -10 -75 -5 0 -11 84 -13 208 -5 222 -12 282 -32
282 -7 0 -20 3 -29 6 -12 5 -16 -1 -16 -24 0 -17 -4 -34 -10 -37 -6 -4 -10
-57 -10 -126 0 -109 -2 -119 -18 -119 -32 0 -51 -32 -54 -89 -3 -63 -28 -86
-28 -27 0 33 -3 36 -27 36 -65 0 -72 -7 -75 -74 l-3 -61 -19 60 c-27 87 -33
244 -11 339 41 188 174 359 345 444 145 73 311 91 464 52z m506 -1391 c87 -70
352 -315 443 -409 29 -31 37 -47 37 -77 0 -98 -103 -153 -177 -95 -57 46 -458
694 -412 666 8 -4 57 -42 109 -85z"/>
</g>
</svg>
